<?xml version="1.0" encoding="UTF-8"?> <svg xmlns="http://www.w3.org/2000/svg" width="124" height="19" viewBox="0 0 124 19" fill="none"><g clip-path="url(#clip0_971_2051)"><path d="M11.0804 7.37H7.40039V11.05H11.0804V7.37Z" fill="white"></path><path d="M0 0V18.41H18.41V0H0ZM14.73 14.73H3.68V3.68H14.73V14.73Z" fill="white"></path><path d="M24.8799 2.60999H28.3599V15.78H24.8799V2.60999Z" fill="white"></path><path d="M34.4798 5.80999H30.3398V2.60999H42.0998V5.80999H37.9598V15.78H34.4798V5.80999Z" fill="white"></path><path d="M43.7998 2.60999H46.9998V5.70999H50.1098C51.2498 5.70999 52.1498 6.05999 52.7998 6.74999C53.4498 7.42999 53.7798 8.43999 53.7798 9.76999V15.79H50.5798V10.24C50.5798 9.67999 50.4298 9.23999 50.1298 8.91999C49.8298 8.60999 49.4098 8.44999 48.8898 8.44999L47.0098 8.46999V15.79H43.8098V2.60999H43.7998Z" fill="white"></path><path d="M59.7901 16.07C58.6501 16.07 57.7501 15.73 57.1001 15.04C56.4501 14.36 56.1201 13.35 56.1201 12.02V6H59.3201V11.55C59.3201 12.11 59.4701 12.55 59.7701 12.87C60.0701 13.18 60.4901 13.34 61.0101 13.34C61.5301 13.34 61.9801 13.15 62.3501 12.76C62.7101 12.37 62.9001 11.84 62.9001 11.18V6H66.1001V15.79H62.9001V14.47H62.7101C62.5301 14.78 62.3101 15.05 62.0301 15.28C61.7901 15.48 61.4901 15.66 61.1301 15.83C60.7701 15.99 60.3201 16.07 59.7901 16.07Z" fill="white"></path><path d="M74.85 16.07C74.35 16.07 73.92 15.99 73.56 15.83C73.2 15.67 72.9 15.49 72.65 15.28C72.36 15.05 72.12 14.78 71.93 14.47H71.74V15.79H68.54V2.60999H71.74V5.72999L74.85 5.70999C75.44 5.70999 75.99 5.82999 76.52 6.06999C77.04 6.30999 77.5 6.64999 77.89 7.09999C78.29 7.54999 78.6 8.08999 78.83 8.72999C79.06 9.36999 79.18 10.09 79.18 10.89C79.18 11.69 79.06 12.41 78.83 13.05C78.6 13.69 78.28 14.23 77.89 14.68C77.49 15.13 77.04 15.47 76.52 15.71C76 15.95 75.44 16.07 74.85 16.07ZM73.82 13.34C74.43 13.34 74.93 13.13 75.32 12.72C75.7 12.31 75.89 11.7 75.89 10.89C75.89 10.08 75.7 9.47999 75.32 9.05999C74.94 8.64999 74.44 8.43999 73.82 8.43999H71.75V10.89C71.75 11.69 71.94 12.3 72.32 12.72C72.7 13.13 73.2 13.34 73.82 13.34Z" fill="white"></path><path d="M88.4501 5.20999H84.0801V2.48999H95.7301V5.20999H91.3601V16.08H88.4501V5.20999Z" fill="#C6C6C6"></path><path d="M99.5802 16.37C98.3602 16.37 97.4102 16.02 96.7302 15.31C96.0402 14.6 95.7002 13.57 95.7002 12.19V6.17004H98.4202V11.8C98.4202 12.54 98.6002 13.09 98.9602 13.47C99.3202 13.85 99.8202 14.03 100.45 14.03C100.76 14.03 101.06 13.97 101.34 13.84C101.62 13.71 101.87 13.53 102.09 13.31C102.3 13.08 102.47 12.81 102.59 12.49C102.71 12.17 102.77 11.81 102.77 11.42V6.18004H105.49V16.08H102.77V14.72H102.67C102.49 15.04 102.25 15.32 101.95 15.55C101.69 15.76 101.37 15.94 100.98 16.11C100.59 16.28 100.12 16.36 99.5602 16.36L99.5802 16.37Z" fill="#C6C6C6"></path><path d="M107.64 2.48999H110.36V13.75H112.59V16.08H107.64V2.48999Z" fill="#C6C6C6"></path><path d="M117.92 16.3699C117.29 16.3699 116.69 16.2499 116.14 15.9999C115.59 15.7499 115.11 15.3999 114.69 14.9499C114.28 14.4999 113.95 13.9499 113.71 13.2999C113.47 12.6499 113.35 11.9299 113.35 11.1299C113.35 10.3299 113.47 9.59993 113.71 8.95993C113.95 8.30993 114.28 7.75993 114.69 7.30993C115.1 6.85993 115.42 6.73993 115.97 6.49993C116.52 6.24993 117.27 6.17993 117.91 6.17993C118.45 6.17993 121.11 6.17993 121.11 6.17993H123.83V16.0799H121.11V14.8199H121.01C120.8 15.0999 120.55 15.3599 120.25 15.5999C119.99 15.7899 119.67 15.9699 119.29 16.1299C118.91 16.2899 118.45 16.3699 117.9 16.3699H117.92ZM118.6 14.0399C119.34 14.0399 119.94 13.7899 120.42 13.2799C120.89 12.7799 121.13 12.0599 121.13 11.1299C121.13 10.1999 121.15 8.24993 121.15 8.24993C121.15 8.24993 119.35 8.21993 118.61 8.21993C117.92 8.21993 117.35 8.46993 116.88 8.97993C116.41 9.47993 116.18 10.1999 116.18 11.1299C116.18 12.0599 116.41 12.7799 116.88 13.2799C117.35 13.7799 117.92 14.0399 118.61 14.0399H118.6Z" fill="#C6C6C6"></path></g><defs><clipPath id="clip0_971_2051"><rect width="123.84" height="18.41" fill="white"></rect></clipPath></defs></svg> 